<?xml version="1.0" encoding="UTF-8"?>
<svg width="700pt" height="700pt" version="1.1" viewBox="0 0 700 600" xmlns="http://www.w3.org/2000/svg">
 <g>
  <path d="m85.555 560h3.1094l144.67-28.934c11.781-2.2812 22.613-8.0234 31.113-16.488l334.45-335.54c19.633-19.605 30.664-46.215 30.664-73.965s-11.031-54.359-30.664-73.969c-19.664-19.652-46.324-30.691-74.125-30.691-27.797 0-54.461 11.039-74.121 30.691l-334.91 334.76c-8.4688 8.5-14.207 19.332-16.488 31.109l-29.246 144.36c-0.94531 4.6328 0.26562 9.4414 3.2891 13.074 3.0273 3.6328 7.5391 5.6875 12.266 5.5938zm44.18-157.27c1.1172-5.6055 3.8789-10.75 7.9336-14.777l335.22-335.22c18.645-18.645 45.82-25.93 71.289-19.102 25.469 6.8242 45.363 26.719 52.188 52.188 6.8281 25.469-0.45703 52.645-19.102 71.289l-335.22 335.22c-4.2383 4.1914-9.6719 6.9648-15.555 7.9336l-121.18 24.422z"/>
  <path d="m614.45 544.45c0-4.125-1.6406-8.082-4.5586-11-2.9141-2.918-6.8711-4.5547-10.996-4.5547h-311.11c-5.5586 0-10.691 2.9648-13.473 7.7773-2.7773 4.8125-2.7773 10.742 0 15.555 2.7812 4.8125 7.9141 7.7773 13.473 7.7773h311.11c4.125 0 8.082-1.6406 10.996-4.5547 2.918-2.918 4.5586-6.875 4.5586-11z"/>
 </g>
</svg>
