<?xml version="1.0" encoding="UTF-8"?>
<svg fill='rgb(255, 255, 255)' width="700pt" height="700pt" version="1.1" viewBox="0 0 700 600" xmlns="http://www.w3.org/2000/svg" xmlns:xlink="http://www.w3.org/1999/xlink">
 <g>
  <path d="m540.96 136.08c0-15.121-12.32-28-28-28h-98.562c-1.6797-21.281-19.039-38.641-40.879-38.641h-47.039c-21.84 0-39.762 16.801-41.441 38.641h-98.559c-15.121 0-28 12.32-28 28 0 13.441 9.5195 24.641 22.398 27.441l43.68 319.76c0.55859 3.9219 3.9219 7.2812 8.3984 7.2812h233.52c4.4805 0 7.8398-3.3594 8.3984-7.2812l43.68-319.76c12.887-2.8008 22.406-14 22.406-27.441zm-214.48-49.84h47.039c12.32 0 22.961 9.5195 24.078 21.84h-95.199c1.1211-12.316 11.762-21.84 24.082-21.84zm132.72 387.52h-218.4l-42.559-309.68h303.52zm54.32-327.04h-326.48c-6.1602 0-11.199-5.0391-11.199-11.199 0-6.1602 5.0391-11.199 11.199-11.199h326.48c6.1602 0 11.199 5.0391 11.199 11.199 0 6.1602-5.5977 11.199-11.199 11.199z"/>
  <path d="m350 448.56c4.4805 0 8.3984-3.9219 8.3984-8.3984v-243.04c0-4.4805-3.9219-8.3984-8.3984-8.3984-4.4805 0-8.3984 3.9219-8.3984 8.3984v242.48c0 5.0391 3.918 8.957 8.3984 8.957z"/>
  <path d="m289.52 448h1.1211c4.4805-0.55859 7.8398-4.4805 7.2812-8.9609l-24.078-241.36c-0.55859-4.4805-4.4805-7.8398-8.9609-7.2812-4.4805 0.55859-7.8398 4.4805-7.2812 8.9609l24.078 241.36c-0.55859 3.9219 3.3594 7.2812 7.8398 7.2812z"/>
  <path d="m409.92 447.44h1.1211c4.4805 0 7.8398-3.3594 8.3984-7.8398l24.078-241.36c0.55859-4.4805-2.8008-8.9609-7.2812-8.9609-4.4805-0.55859-8.9609 2.8008-8.9609 7.2812l-24.078 241.36c-1.1211 5.0391 2.2422 9.5195 6.7227 9.5195z"/>
 </g>
</svg>
