<?xml version="1.0" encoding="UTF-8"?>
<svg fill="rgb(255, 255 ,255)" width="700pt" height="700pt" version="1.1" viewBox="0 0 700 600" xmlns="http://www.w3.org/2000/svg" xmlns:xlink="http://www.w3.org/1999/xlink">
<g>
  <path d="m509.6 39.199h-319.2c-14.852 0-29.094 5.9023-39.598 16.402-10.5 10.504-16.402 24.746-16.402 39.598v369.6c0 14.852 5.9023 29.094 16.402 39.598 10.504 10.5 24.746 16.402 39.598 16.402h319.2c14.852 0 29.094-5.9023 39.598-16.402 10.5-10.504 16.402-24.746 16.402-39.598v-369.6c0-14.852-5.9023-29.094-16.402-39.598-10.504-10.5-24.746-16.402-39.598-16.402zm-296.8 459.2h-22.402c-8.9102 0-17.457-3.5391-23.758-9.8398-6.3008-6.3008-9.8398-14.848-9.8398-23.758v-369.6c0-8.9102 3.5391-17.457 9.8398-23.758 6.3008-6.3008 14.848-9.8398 23.758-9.8398h22.398zm330.4-33.602v0.003906c0 8.9102-3.5391 17.457-9.8398 23.758-6.3008 6.3008-14.848 9.8398-23.758 9.8398h-274.4l-0.003906-436.8h274.4c8.9102 0 17.457 3.5391 23.758 9.8398 6.3008 6.3008 9.8398 14.848 9.8398 23.758z"/>
  <path d="m380.8 276.59c16.172 0 31.684-6.4258 43.121-17.863s17.863-26.949 17.863-43.121c0-16.176-6.4258-31.688-17.863-43.125-11.438-11.434-26.949-17.859-43.121-17.859-16.176 0-31.688 6.4258-43.121 17.859-11.438 11.438-17.863 26.949-17.863 43.125 0.015625 16.168 6.4453 31.672 17.879 43.105 11.434 11.434 26.934 17.863 43.105 17.879zm0-99.566v-0.003906c10.23 0 20.047 4.0664 27.281 11.301 7.2383 7.2383 11.301 17.051 11.301 27.285 0 10.23-4.0625 20.047-11.301 27.281-7.2344 7.2344-17.051 11.301-27.281 11.301-10.234 0-20.047-4.0664-27.285-11.301-7.2344-7.2344-11.301-17.051-11.301-27.281 0.015625-10.23 4.0859-20.035 11.32-27.27 7.2305-7.2305 17.035-11.301 27.266-11.316z"/>
  <path d="m380.8 286.66c-20.828-0.57422-41.406 4.6406-59.445 15.059-18.043 10.422-32.844 25.641-42.754 43.965-0.71094 1.5078-1.0742 3.1523-1.0664 4.8164v46.031c0 2.9727 1.1797 5.8203 3.2812 7.9219 2.1016 2.0977 4.9492 3.2773 7.918 3.2773h184.13c2.9727 0 5.8203-1.1797 7.9219-3.2773 2.0977-2.1016 3.2773-4.9492 3.2773-7.9219v-46.031c0.007812-1.6641-0.35547-3.3086-1.0625-4.8164-9.9141-18.324-24.711-33.543-42.754-43.965-18.043-10.418-38.621-15.633-59.445-15.059zm80.863 98.672h-161.73v-32.031c8.3164-13.906 20.199-25.34 34.414-33.117 14.215-7.7773 30.25-11.617 46.449-11.125 16.191-0.49609 32.223 3.3359 46.438 11.102 14.215 7.7656 26.098 19.188 34.426 33.082z"/>
</g>
</svg>
