<?xml version="1.0" encoding="UTF-8"?>
<svg fill="rgb(255, 255, 255)" width="700pt" height="700pt" version="1.1" viewBox="0 0 700 600" xmlns="http://www.w3.org/2000/svg" xmlns:xlink="http://www.w3.org/1999/xlink">
 <g>
  <path d="m610.65 161.19-227.5-113.75c-9.668-4.8398-21.641-4.8398-31.309 0l-227.5 113.75c-11.934 5.9688-19.344 17.965-19.344 31.309v184.63c-19.941 4.0703-35 21.734-35 42.867 0 16.09 8.8281 30.02 21.805 37.625-12.496 16.441-13.055 45.422-13.055 49.875 0 4.8281 3.9102 8.7422 8.7422 8.75h0.007812c4.8281 0 8.7422-3.9102 8.75-8.7422 0.027344-14.277 4.3398-43.758 17.5-43.758s17.473 29.48 17.5 43.758c0.007812 4.832 3.9219 8.7422 8.75 8.7422h0.007812c4.832-0.007812 8.7422-3.9219 8.7422-8.75 0-4.4531-0.55859-33.434-13.055-49.875 12.977-7.6055 21.805-21.535 21.805-37.625 0-21.133-15.059-38.797-35-42.867v-154.42c0.62109 0.35938 1.1992 0.76172 1.8477 1.0938l227.5 113.75c4.8359 2.4141 10.254 3.6914 15.652 3.6914s10.816-1.2773 15.652-3.6914l227.5-113.75c11.926-5.9688 19.348-17.965 19.348-31.309s-7.4219-25.34-19.348-31.309zm-470.65 258.81c0 14.473-11.777 26.25-26.25 26.25s-26.25-11.777-26.25-26.25 11.777-26.25 26.25-26.25 26.25 11.777 26.25 26.25zm462.83-211.85-227.5 113.75c-4.8398 2.4141-10.816 2.4141-15.652 0l-227.5-113.75c-3.1445-1.5742-5.6094-4.0078-7.2812-6.9023h242.6c4.8398 0 8.75-3.9219 8.75-8.75s-3.9102-8.75-8.75-8.75h-242.6c1.6719-2.8945 4.1406-5.3281 7.2812-6.9023l227.5-113.75c2.4141-1.207 5.1172-1.8477 7.8203-1.8477s5.4062 0.64062 7.832 1.8477l227.5 113.75c5.957 2.9805 9.668 8.9766 9.668 15.652s-3.7109 12.672-9.668 15.652z"/>
  <path d="m533.75 280c-4.8398 0-8.75 3.9219-8.75 8.75v148.75c0 27.738-70.254 61.25-157.5 61.25s-157.5-33.512-157.5-61.25v-148.75c0-4.8281-3.9219-8.75-8.75-8.75s-8.75 3.9219-8.75 8.75v148.75c0 42.684 80.141 78.75 175 78.75s175-36.066 175-78.75v-148.75c0-4.8281-3.9102-8.75-8.75-8.75z"/>
 </g>
</svg>
