<?xml version="1.0" encoding="UTF-8"?>
<svg fill="rgb(255, 255, 255)" width="700pt" height="700pt" version="1.1" viewBox="0 0 700 600" xmlns="http://www.w3.org/2000/svg">
 <path d="m209.33 26.258c-17.68 0-35.488 4.2031-51.926 12.734v-0.003907c-2.4766 1.2891-4.1875 3.6758-4.6133 6.4336-0.42578 2.7539 0.49219 5.5469 2.4609 7.5195l56.547 56.547-32.363 32.363-56.492-56.492c-1.9727-1.9727-4.7656-2.8867-7.5234-2.4609-2.7539 0.42187-5.1445 2.1367-6.4297 4.6094-22.727 43.805-14.48 97.363 20.375 132.25v0.003906c0.003907 0 0.003907 0.003906 0.007813 0.007813 29.832 29.805 73.684 40.438 113.69 28l29.625 29.625-124.31 124.32c-0.98438 0.97656-1.7227 2.1758-2.1523 3.4922l-32.352 99.91 0.003906-0.003907c-1.0117 3.1289-0.1875 6.5586 2.1367 8.8828 2.3242 2.3242 5.7539 3.1484 8.8828 2.1367l99.91-32.348h-0.003906c1.3203-0.42969 2.5156-1.1641 3.4922-2.1484l124.31-124.31 29.625 29.625c-12.434 40.004-1.7852 83.855 28.004 113.69 0.003906 0 0.007812 0.003906 0.007812 0.003906 34.895 34.852 88.449 43.098 132.25 20.375l0.003906 0.003907c2.4727-1.2891 4.1875-3.6758 4.6133-6.4336 0.42578-2.7578-0.49219-5.5547-2.4648-7.5234l-56.496-56.492 32.363-32.363 56.547 56.547v-0.003906c1.9727 1.9727 4.7656 2.8906 7.5234 2.4648 2.7578-0.42578 5.1445-2.1367 6.4336-4.6133 22.738-43.832 14.465-97.418-20.43-132.31-29.832-29.828-73.699-40.469-113.71-28.031l-29.598-29.602 156.71-156.71h-0.003906c3.4141-3.418 3.4141-8.957 0-12.375l-67.559-67.559c-1.6406-1.6445-3.8633-2.5742-6.1875-2.5781-2.3242 0.003906-4.5508 0.93359-6.1875 2.5781l-156.71 156.71-29.598-29.602c12.438-40.016 1.7852-83.879-28.035-113.71-21.809-21.812-50.918-33.223-80.387-33.164zm0.69531 17.48c24.688 0 49.012 9.7383 67.324 28.055 26.379 26.383 35.023 65.629 22.176 100.69-1.1758 3.1992-0.38672 6.7852 2.0156 9.1992l33.426 33.426-49.926 49.93-33.453-33.453v-0.003907c-2.4141-2.4062-6-3.1953-9.1992-2.0195-35.047 12.84-74.277 4.207-100.66-22.148l-0.007812-0.007812c-26.598-26.637-34.863-65.961-22.141-100.64l53.656 53.656c3.4141 3.4141 8.9531 3.4141 12.371 0l44.738-44.738v-0.003906c3.418-3.4141 3.418-8.957 0-12.375l-53.703-53.703c10.844-3.9766 22.141-5.9062 33.367-5.8594zm300.23 20.844 55.184 55.184-46.215 46.215-55.184-55.184zm-58.59 58.59 55.188 55.184-97.887 97.887h-0.003906c-0.11328 0.10937-0.22266 0.21875-0.32813 0.33203-0.11328 0.10547-0.22656 0.21875-0.33203 0.33203l-61.992 61.992-105.6 105.6-55.184-55.184 105.6-105.6c0.11328-0.10938 0.22656-0.21875 0.33203-0.33203l61.875-61.875c0.11328-0.10937 0.22656-0.21875 0.33203-0.33203 0.21094-0.21094 0.41016-0.42969 0.59375-0.66016zm-36.754 171.87 33.43 33.43c2.4141 2.4062 6 3.1914 9.1992 2.0195 35.059-12.844 74.309-4.1953 100.69 22.176 26.641 26.633 34.926 65.992 22.195 100.69l-53.703-53.703v0.003906c-3.418-3.418-8.957-3.418-12.375 0l-44.734 44.738c-3.418 3.418-3.418 8.9609 0 12.375l53.648 53.648c-34.676 12.727-74.008 4.457-100.64-22.145-26.352-26.383-34.984-65.617-22.145-100.66 1.1758-3.1992 0.38672-6.7852-2.0156-9.1992l-33.453-33.453zm-241.71 106.6 55.184 55.184-10.965 10.965-81.605 26.426 26.426-81.605z" fill-rule="evenodd"/>
</svg>
