<?xml version="1.0" encoding="UTF-8"?>
<svg fill="rgb(255, 255, 255)" width="700pt" height="700pt" version="1.1" viewBox="0 0 700 600" xmlns="http://www.w3.org/2000/svg" xmlns:xlink="http://www.w3.org/1999/xlink">
 <g>
  <path d="m93.492 514.96h482.69c4.1406 0 7.4922-3.3516 7.4922-7.4922s-3.3516-7.4922-7.4922-7.4922l-196.6 0.003906h-27.043l0.75-2.6055c3.6445-1.207 7.168-2.6641 10.539-4.3594l11.082 6.1133c1.4648 0.79688 3.1016 1.0703 4.668 0.84766 1.5664-0.22266 3.0664-0.9375 4.2461-2.1133l19.723-19.723c2.3633-2.3633 2.875-6 1.2578-8.9258l-6.1289-11.066c1.7344-3.4688 3.1914-6.9922 4.3594-10.555l12.145-3.5039c3.2031-0.92969 5.4141-3.8633 5.4141-7.1992v-27.855c0-3.3359-2.207-6.2695-5.4141-7.1992l-12.145-3.5039c-1.1758-3.5703-2.625-7.0898-4.3516-10.527l6.1289-11.098c1.6094-2.9258 1.0898-6.5625-1.2734-8.9258l-19.723-19.676c-2.3633-2.3477-5.9766-2.8516-8.9102-1.2578l-11.082 6.1133c-3.4219-1.7344-6.9492-3.2031-10.547-4.3906l-3.5039-12.145c-0.92969-3.2031-3.8633-5.4141-7.1992-5.4141h-27.855c-3.3359 0-6.2695 2.207-7.1992 5.4141l-3.5039 12.145c-3.5938 1.1836-7.125 2.6562-10.578 4.3906l-11.039-6.1094c-2.9102-1.6016-6.5469-1.1055-8.918 1.25l-19.73 19.676c-2.3633 2.3555-2.8828 6-1.2734 8.9258l6.1211 11.082c-1.7031 3.3789-3.168 6.8984-4.3672 10.539l-12.164 3.5039c-3.2031 0.92969-5.4141 3.8633-5.4141 7.1992v27.855c0 3.3359 2.207 6.2695 5.4141 7.1992l12.164 3.5039c1.1992 3.6367 2.6641 7.168 4.3672 10.578l-6.1133 11.047c-1.6172 2.9258-1.1055 6.5625 1.2578 8.9258l19.73 19.723c1.1758 1.1758 2.6719 1.8906 4.2344 2.1133l-184.22 0.007813c-4.1406 0-7.4922 3.3516-7.4922 7.4922 0 4.1406 3.3516 7.4883 7.4922 7.4883zm174.84-43.422 5.3633-9.6758c1.2656-2.2891 1.25-5.0781-0.050781-7.3438-2.6758-4.6797-4.7539-9.707-6.1797-14.953-0.6875-2.5234-2.6406-4.5078-5.1484-5.2305l-10.664-3.0703v-16.59l10.664-3.0703c2.5078-0.72266 4.4609-2.707 5.1484-5.2305 1.4336-5.2656 3.5117-10.27 6.168-14.871 1.3086-2.2734 1.3398-5.0703 0.074219-7.3672l-5.3711-9.7227 11.746-11.711 9.6836 5.3633c2.2891 1.2656 5.0859 1.25 7.3594-0.058593 4.7773-2.7422 9.7891-4.8203 14.879-6.168 2.5469-0.67188 4.5508-2.6328 5.2812-5.1641l3.0703-10.664h16.59l3.0703 10.664c0.73047 2.5312 2.7344 4.4922 5.2812 5.1641 5.1133 1.3555 10.094 3.4219 14.812 6.1523 2.2734 1.3164 5.0703 1.3438 7.375 0.082031l9.7344-5.375 11.746 11.719-5.3711 9.7227c-1.2578 2.2812-1.2344 5.0547 0.050782 7.3242 2.7305 4.793 4.793 9.7969 6.1289 14.863 0.67188 2.5469 2.6328 4.5508 5.1641 5.2812l10.664 3.0703v16.59l-10.664 3.0703c-2.5312 0.73047-4.4922 2.7344-5.1641 5.2812-1.3398 5.0391-3.4023 10.074-6.1445 14.945-1.2812 2.2617-1.2891 5.0273-0.03125 7.3008l5.3633 9.6758-11.754 11.746-9.7305-5.3711c-2.3047-1.2734-5.0977-1.2422-7.375 0.082031-4.5781 2.6484-9.5742 4.7188-14.863 6.1602-2.5234 0.6875-4.5078 2.6406-5.2305 5.1484l-3.0703 10.672h-16.59l-3.0703-10.672c-0.72266-2.5078-2.707-4.4609-5.2305-5.1484-5.2656-1.4336-10.293-3.5117-14.93-6.1719-2.2734-1.3086-5.0703-1.3164-7.3594-0.058594l-9.6758 5.3633zm14.074 27.586 11.047-6.1133c3.3945 1.7031 6.9258 3.168 10.562 4.3672l0.75 2.6055h-26.797c1.5 0.16016 3.0469-0.09375 4.4375-0.85938z"/>
  <path d="m167.02 271.9 31.461 31.461c2.3633 2.3633 6.0039 2.8672 8.9258 1.2578l19.676-10.891c6.5898 3.4727 13.469 6.3203 20.535 8.5078l6.2695 21.66c0.92969 3.2031 3.8633 5.4062 7.1992 5.4062h44.344c3.3359 0 6.2695-2.2031 7.1992-5.4062l6.2617-21.66c7.0898-2.1875 13.941-5.0312 20.477-8.5l19.742 10.891c2.9258 1.5859 6.5547 1.0898 8.918-1.2656l31.461-31.461c2.3633-2.3633 2.875-6 1.2578-8.918l-10.891-19.715c3.5273-6.7539 6.3633-13.621 8.4648-20.512l21.629-6.2617c3.2031-0.92969 5.4062-3.8633 5.4062-7.1992l-0.007813-44.633c0-3.3633-2.2461-6.3125-5.4883-7.2188l-21.566-6c-2.1055-6.8906-4.9375-13.73-8.4492-20.414l10.898-19.844c1.6094-2.9258 1.0898-6.5625-1.2812-8.918l-31.461-31.309c-2.3711-2.3555-6-2.8438-8.8945-1.25l-19.73 10.871c-6.5391-3.5117-13.41-6.3555-20.504-8.5156l-6.2539-21.625c-0.92969-3.2031-3.8633-5.4062-7.1992-5.4062h-44.344c-3.3359 0-6.2695 2.2031-7.1992 5.4062l-6.2617 21.625c-7.0742 2.1523-13.965 5.0039-20.562 8.5234l-19.648-10.875c-2.9102-1.6016-6.5391-1.1133-8.9102 1.2422l-31.461 31.309c-2.3711 2.3555-2.8906 5.9922-1.2812 8.918l10.891 19.824c-3.4688 6.5391-6.3125 13.395-8.5 20.477l-21.637 6.2031c-3.2109 0.92188-5.4297 3.8555-5.4297 7.1992v44.418c0 3.3359 2.2031 6.2695 5.4062 7.1992l21.652 6.2695c2.1875 7.0586 5.0312 13.941 8.5078 20.527l-10.887 19.691c-1.6133 2.9102-1.0977 6.5469 1.2656 8.9102zm9.25-62.383-20.211-5.8516v-33.137l20.191-5.793c2.5234-0.72266 4.4844-2.7148 5.1719-5.2461 2.332-8.6523 5.7852-16.973 10.262-24.727 1.3086-2.2695 1.3398-5.0547 0.074219-7.3516l-10.16-18.504 23.473-23.363 18.367 10.16c2.3125 1.2656 5.1133 1.25 7.3945-0.082031 7.8125-4.543 16.129-7.9883 24.73-10.234 2.5469-0.67188 4.5586-2.6328 5.2969-5.1641l5.8516-20.211h33.078l5.8438 20.211c0.73828 2.5312 2.75 4.4922 5.3047 5.1641 8.6328 2.2617 16.91 5.6992 24.621 10.219 2.2812 1.3398 5.0898 1.375 7.4023 0.10156l18.457-10.176 23.48 23.371-10.16 18.508c-1.2578 2.2812-1.2344 5.0469 0.050781 7.3086 4.5859 8.0703 8.0195 16.387 10.195 24.719 0.67969 2.5742 2.6758 4.6016 5.2461 5.3203l20.133 5.5977v33.312l-20.207 5.8477c-2.5312 0.73828-4.4922 2.75-5.1641 5.2969-2.1719 8.3008-5.6094 16.648-10.211 24.812-1.2812 2.2695-1.2891 5.0273-0.03125 7.3008l10.152 18.367-23.496 23.496-18.434-10.176c-2.3203-1.2734-5.1055-1.2344-7.3672 0.074218-7.7383 4.4766-16.059 7.9297-24.727 10.27-2.5312 0.6875-4.5117 2.6406-5.2461 5.1484l-5.8438 20.211h-33.078l-5.8516-20.211c-0.73047-2.5078-2.7148-4.4609-5.2461-5.1406-8.625-2.3398-16.984-5.8008-24.828-10.293-2.2734-1.293-5.0625-1.3086-7.3516-0.050781l-18.355 10.16-23.48-23.488 10.152-18.367c1.2656-2.2891 1.2422-5.0703-0.050781-7.3438-4.5-7.8398-7.9531-16.195-10.277-24.82-0.6875-2.5234-2.6328-4.5156-5.1523-5.2461z"/>
  <path d="m283.25 255.07c37.426 0 67.867-30.48 67.867-67.941 0-37.418-30.445-67.863-67.867-67.863-37.461 0-67.934 30.445-67.934 67.863 0 37.461 30.473 67.941 67.934 67.941zm0-120.82c29.164 0 52.887 23.723 52.887 52.879 0 29.203-23.723 52.961-52.887 52.961-29.203 0-52.953-23.758-52.953-52.961 0-29.156 23.75-52.879 52.953-52.879z"/>
  <path d="m614 327.04v-32.953c0-3.3359-2.207-6.2773-5.4219-7.1992l-15.062-4.3359c-1.4688-4.625-3.3516-9.1719-5.6094-13.598l7.5938-13.758c1.6094-2.9258 1.0898-6.5625-1.2734-8.9258l-23.328-23.277c-2.3555-2.3477-5.9766-2.8516-8.9102-1.2578l-13.738 7.5859c-4.4102-2.2812-8.9609-4.168-13.621-5.6602l-4.3359-15.055c-0.92188-3.2109-3.8633-5.4219-7.1992-5.4219h-32.953c-3.3359 0-6.2773 2.207-7.1992 5.4219l-4.3359 15.055c-4.6445 1.4844-9.2188 3.3789-13.656 5.6602l-13.695-7.5781c-2.9102-1.6016-6.5469-1.1055-8.918 1.25l-23.328 23.277c-2.3633 2.3555-2.8828 6-1.2734 8.918l7.5781 13.754c-2.2305 4.3359-4.1094 8.8945-5.6328 13.605l-15.074 4.3438c-3.2109 0.92188-5.4219 3.8633-5.4219 7.1992v32.953c0 3.3359 2.207 6.2773 5.4219 7.1992l15.074 4.3438c1.5156 4.7031 3.4023 9.2695 5.6406 13.641l-7.5781 13.699c-1.6172 2.9258-1.1055 6.5625 1.2578 8.9258l23.328 23.328c2.3633 2.3711 6.0039 2.8672 8.9258 1.2578l13.695-7.5859c4.375 2.2383 8.9453 4.125 13.648 5.6484l4.3438 15.074c0.92188 3.2109 3.8633 5.4219 7.1992 5.4219h32.953c3.3359 0 6.2773-2.207 7.1992-5.4219l4.3438-15.074c4.7188-1.5234 9.2695-3.4102 13.605-5.6406l13.746 7.5859c2.9258 1.5859 6.5547 1.0898 8.918-1.2656l23.328-23.328c2.3633-2.3633 2.875-6 1.2578-8.9258l-7.5938-13.715c2.2695-4.4609 4.1484-9.0273 5.6172-13.637l15.062-4.3359c3.2148-0.92188 5.4219-3.8633 5.4219-7.1992zm-14.98-5.6406-13.605 3.9219c-2.5391 0.73047-4.5 2.7344-5.1719 5.2891-1.6016 6.0859-4.0898 12.129-7.3945 17.973-1.2812 2.2695-1.2891 5.0391-0.03125 7.3164l6.8398 12.348-15.363 15.355-12.406-6.8477c-2.3047-1.2734-5.0977-1.2422-7.375 0.082031-5.5312 3.1953-11.559 5.6992-17.906 7.4258-2.5234 0.6875-4.5078 2.6406-5.2305 5.1562l-3.9219 13.598h-21.676l-3.9219-13.598c-0.72266-2.5156-2.707-4.4688-5.2305-5.1562-6.3281-1.7188-12.375-4.2227-17.996-7.4375-2.2617-1.3086-5.0625-1.3164-7.3516-0.058593l-12.348 6.8398-15.355-15.355 6.832-12.348c1.2656-2.2891 1.2422-5.0781-0.050781-7.3438-3.2188-5.625-5.7188-11.684-7.4375-18.004-0.6875-2.5234-2.6406-4.5078-5.1562-5.2305l-13.598-3.9219v-21.676l13.598-3.9219c2.5156-0.72266 4.4688-2.707 5.1562-5.2305 1.7266-6.3477 4.2227-12.371 7.4258-17.914 1.3086-2.2734 1.3398-5.0625 0.074219-7.3594l-6.8398-12.406 15.348-15.316 12.355 6.8398c2.2891 1.2578 5.0898 1.2578 7.3516-0.058593 5.7656-3.3008 11.805-5.8008 17.945-7.4258 2.5469-0.67188 4.5508-2.6328 5.2812-5.1719l3.9219-13.598h21.676l3.9219 13.598c0.73047 2.5391 2.7344 4.5 5.2812 5.1719 6.168 1.6328 12.18 4.125 17.855 7.4102 2.2734 1.3164 5.0703 1.3438 7.375 0.082031l12.414-6.8555 15.355 15.316-6.8477 12.406c-1.2578 2.2891-1.2344 5.0625 0.050781 7.3281 3.2852 5.7578 5.7656 11.777 7.3789 17.895 0.67187 2.5547 2.6328 4.5586 5.1719 5.2891l13.605 3.9219z"/>
  <path d="m506.59 258.28c-28.844 0-52.301 23.461-52.301 52.301 0 28.844 23.461 52.301 52.301 52.301 28.836 0 52.297-23.461 52.297-52.301 0-28.84-23.461-52.301-52.297-52.301zm0 89.625c-20.578 0-37.32-16.742-37.32-37.32 0-20.578 16.742-37.32 37.32-37.32s37.312 16.742 37.312 37.32c0 20.574-16.734 37.32-37.312 37.32z"/>
  <path d="m328.63 468.38c25.02 0 45.375-20.359 45.375-45.383 0-25.02-20.359-45.375-45.375-45.375-25.02 0-45.375 20.359-45.375 45.375 0 25.023 20.355 45.383 45.375 45.383zm0-75.777c16.758 0 30.395 13.637 30.395 30.395 0 16.766-13.637 30.402-30.395 30.402-16.758 0-30.395-13.637-30.395-30.402 0-16.762 13.637-30.395 30.395-30.395z"/>
 </g>
</svg>
