<?xml version="1.0" encoding="UTF-8"?>
<svg width="700pt" height="700pt" version="1.1" viewBox="0 0 700 600" xmlns="http://www.w3.org/2000/svg" xmlns:xlink="http://www.w3.org/1999/xlink">
 <g>
  <path d="m350.13 33.602c-37 0-71 13.637-95.43 39.727-24.434 26.086-39.027 64.215-39.047 111.48 0 49.832 33.352 108.26 78.973 168h-80.023c-3.7148 0.33203-7.1953 2.6484-8.9297 5.9492l-78.445 151.2c-3.6172 6.8125 2.2656 16.504 9.9805 16.449h425.85c7.7188 0.054687 13.598-9.6367 9.9805-16.449l-78.445-151.2c-1.9102-3.5938-5.9102-5.9805-9.9805-5.9492h-78.973c45.621-59.742 78.973-118.17 78.973-168-0.019532-47.258-14.617-85.387-39.047-111.48-24.434-26.086-58.434-39.727-95.43-39.727zm0 22.398c31.543 0 59.09 11.309 79.148 32.727 20.059 21.418 32.902 53.348 32.918 96.074 0 49.191-49.559 125.82-112.07 200.38-62.508-74.559-112.07-151.18-112.07-200.38 0.019532-42.727 12.859-74.656 32.918-96.074 20.059-21.418 47.602-32.727 79.148-32.727zm0 28c-43.191 0-78.445 35.234-78.445 78.398 0 43.168 35.254 78.398 78.445 78.398 43.191 0 78.445-35.234 78.445-78.398 0-43.168-35.254-78.398-78.445-78.398zm0 22.398c31.078 0 56.031 24.938 56.031 56s-24.953 56-56.031 56c-31.078 0-56.031-24.938-56.031-56s24.953-56 56.031-56zm-127.65 268.8h89.652c9.4883 11.766 19.348 23.434 29.418 35.176 4.1914 4.9844 12.969 4.9844 17.16 0 10.07-11.742 19.93-23.406 29.418-35.176h89.652l66.891 128.8h-389.08zm126.43 61.602c-0.35156 0.054688-0.70312 0.10156-1.0508 0.17188l-112.07 22.398c-6.0859 0.80859-10.742 7.375-9.4922 13.383 1.25 6.0078 8.1406 10.172 14.047 8.4922l109.79-21.875 109.79 21.875c5.9062 1.6836 12.797-2.4844 14.047-8.4922 1.25-6.0078-3.4062-12.574-9.4922-13.383l-112.07-22.398c-1.1484-0.24219-2.3359-0.30078-3.5039-0.17188z"/>
 </g>
</svg>
