<?xml version="1.0" encoding="UTF-8"?>
<svg width="700pt" height="700pt" version="1.1" viewBox="0 0 700 600" xmlns="http://www.w3.org/2000/svg" xmlns:xlink="http://www.w3.org/1999/xlink">
 <g>
  <path d="m618.8 149.27c0-26.773-21.699-48.473-48.473-48.473h-440.65c-26.773 0-48.473 21.699-48.473 48.473v261.45c0 26.773 21.699 48.473 48.473 48.473h440.65c26.773 0 48.473-21.699 48.473-48.473zm-207.7 149.61-13.977 11.848c-27.184 23.051-67.055 23.051-94.238 0l-13.977-11.848-162.44 137.72c1.0547 0.12891 2.1211 0.19531 3.207 0.19531h440.65c1.0859 0 2.1562-0.066406 3.207-0.19531zm-306.62-156.36 167.11 141.68-164.54 139.5c-2.1953-3.8203-3.4492-8.2422-3.4492-12.969v-261.45c0-2.3359 0.30859-4.5977 0.87891-6.7461zm491.04 0c0.57031 2.1523 0.87891 4.4141 0.87891 6.7461v261.45c0 4.7266-1.2539 9.1523-3.4492 12.969l-164.54-139.5 167.11-141.68zm-14.527-17.051c-3.2539-1.4609-6.8672-2.2734-10.668-2.2734h-440.65c-3.8008 0-7.4141 0.8125-10.668 2.2734l198.36 168.17c18.828 15.965 46.434 15.965 65.262 0z" fill-rule="evenodd"/>
 </g>
</svg>
