<?xml version="1.0" encoding="UTF-8"?>
<svg fill='rgb(255, 255, 255)' width="700pt" height="700pt" version="1.1" viewBox="0 0 700 600" xmlns="http://www.w3.org/2000/svg" xmlns:xlink="http://www.w3.org/1999/xlink">
 <g>
  <path d="m350.64 129.81c2.7031 0 4.9492 2.1367 5.0586 4.8633 0.11328 2.7969-2.0625 5.1562-4.8594 5.2656-0.070312 0.003906-0.13672 0.003906-0.20703 0.003906-2.7031 0-4.9492-2.1367-5.0586-4.8633-0.11328-2.7969 2.0664-5.1523 4.8594-5.2656 0.070312 0 0.14062-0.003906 0.20703-0.003906zm0.007813-9.2305c-0.19531 0-0.38672 0.003907-0.58203 0.011719-7.8906 0.31641-14.031 6.9688-13.715 14.855 0.30859 7.6953 6.6445 13.727 14.277 13.727 0.19141 0 0.38672-0.003906 0.57813-0.011719 7.8906-0.31641 14.031-6.9648 13.715-14.855-0.30859-7.6953-6.6406-13.727-14.273-13.727zm-18.715-15.641h37.406v59.875h-37.406zm-8.2148-16.426c-2.1797 0-4.2656 0.86719-5.8086 2.4062-1.5391 1.5391-2.4062 3.6289-2.4062 5.8086v76.301c0 2.1758 0.86719 4.2656 2.4062 5.8047 1.543 1.543 3.6289 2.4062 5.8086 2.4062h53.836c4.5352 0 8.2148-3.6758 8.2148-8.2109v-76.301c0-4.5352-3.6797-8.2148-8.2148-8.2148zm-23.711 67.367c-2.1797 0-4.2695 0.86328-5.8086 2.4062-1.5391 1.5391-2.4062 3.6289-2.4062 5.8047v29.863c0 2.1758 0.86719 4.2656 2.4062 5.8047 1.5391 1.543 3.6289 2.4062 5.8086 2.4062h101.26c4.5391 0 8.2148-3.6758 8.2148-8.2109v-29.863c0-4.5352-3.6758-8.2109-8.2148-8.2109h-11.168c-0.5 0-0.97656 0.19922-1.332 0.55078-0.35156 0.35547-0.55078 0.83594-0.55078 1.3359v12.652c0 0.50391 0.19922 0.98047 0.55078 1.3359 0.35547 0.35156 0.83594 0.55078 1.3359 0.55078h2.9531v13.434h-84.832v-13.434h2.9531c1.0391 0 1.8867-0.84375 1.8867-1.8867v-12.652c0-1.043-0.84766-1.8867-1.8867-1.8867zm47.363 79.855c-1.3594 0-2.6602 0.53906-3.6211 1.5-0.96094 0.95703-1.5 2.2578-1.5 3.6172v6.3789c0 1.3594 0.53906 2.6602 1.5 3.6211 0.96094 0.95703 2.2617 1.4961 3.6211 1.4961h126.23c2.8242 0 5.1172-2.2891 5.1172-5.1172v-6.3789c0-2.8281-2.293-5.1172-5.1172-5.1172zm-119.63 6.4375h0.003906c15.27 0 27.93 12.082 28.512 27.473 0.59766 15.762-11.695 29.02-27.457 29.613-0.36719 0.015625-0.73047 0.023437-1.0977 0.023437-15.273 0-27.934-12.086-28.516-27.477-0.59766-15.758 11.695-29.016 27.457-29.613 0.36719-0.015624 0.73437-0.019531 1.0977-0.019531zm119.63 51.676c-1.3594 0-2.6602 0.53906-3.6211 1.4961-0.96094 0.96094-1.5 2.2617-1.5 3.6211v6.3789c0 1.3594 0.53906 2.6602 1.5 3.6211 0.96094 0.95703 2.2617 1.4961 3.6211 1.4961h202.84c2.8242 0 5.1172-2.2891 5.1172-5.1172v-6.3789c0-2.8281-2.293-5.1172-5.1172-5.1172zm-119.62-68.168h-0.089843c-0.54688 0-1.0938 0.011718-1.6445 0.03125-24.863 0.94141-44.254 21.859-43.312 46.719 0.91797 24.281 20.891 43.344 44.984 43.344 0.57813 0 1.1562-0.011719 1.7344-0.035156 24.863-0.9375 44.254-21.855 43.312-46.715-0.91797-24.281-20.891-43.344-44.984-43.344zm119.62 126.61c-1.3594 0-2.6602 0.53906-3.6211 1.4961-0.96094 0.96094-1.5 2.2617-1.5 3.6211v6.3789c0 1.3594 0.53906 2.6602 1.5 3.6211 0.96094 0.95703 2.2617 1.4961 3.6211 1.4961h202.84c2.8242 0 5.1172-2.2891 5.1172-5.1172v-6.3789c0-2.8281-2.293-5.1172-5.1172-5.1172zm-144.71-14.262h0.003906l14.086 10.688c5.4648 4.1445 8.2188 6.2266 10.98 6.2266 2.7539 0 5.5156-2.0703 10.996-6.2227l14.09-10.68c12.336 2.8398 21.633 5.5742 27.285 11.469 6.3008 6.5742 9.1641 18.332 10.863 28.305 0.99219 5.8477 1.4375 9.9336 1.6758 13.426l-64.918 26.539-64.906-26.566c0.24219-3.4922 0.6875-7.5781 1.6836-13.426 1.6992-9.9688 4.5703-21.73 10.875-28.297 5.6523-5.8945 14.953-8.625 27.285-11.461zm144.71 70.105c-1.3594 0-2.6602 0.54297-3.6211 1.5-0.96094 0.96094-1.5 2.2617-1.5 3.6211v6.3789c0 1.3555 0.53906 2.6602 1.5 3.6211 0.96094 0.95703 2.2617 1.4961 3.6211 1.4961h202.84c2.8242 0 5.1172-2.2891 5.1172-5.1172v-6.3789c0-2.8281-2.293-5.1211-5.1172-5.1211zm-142.79-87.195v0.003906h-0.015625c-0.59375 0-1.1914 0.0625-1.7773 0.19531-12.68 2.8359-28.945 6.1875-39.285 16.965-10.242 10.68-13.594 27.41-15.219 36.918-1.7422 10.23-1.9766 15.855-2.1953 21.262-0.14062 3.457 1.8984 6.6328 5.1016 7.9453l73.215 29.965c1.0195 0.41797 2.0742 0.61328 3.1133 0.61328h0.19922 0.20703c1.0352 0 2.0898-0.19531 3.1094-0.61328l73.227-29.934c3.2031-1.3086 5.2422-4.4844 5.1055-7.9414-0.21875-5.4102-0.44922-11.035-2.1875-21.262-1.6211-9.5117-4.9648-26.242-15.203-36.926-10.336-10.781-26.598-14.141-39.277-16.98-0.59375-0.13672-1.1992-0.19922-1.7969-0.19922-1.7773 0-3.5273 0.57422-4.9688 1.668l-17.145 12.996c-0.38281 0.28906-0.73047 0.60547-1.0469 0.94531h-0.003907c-0.31641-0.33984-0.66406-0.65625-1.0469-0.94531l-17.137-13.004c-1.4453-1.0938-3.1953-1.6719-4.9727-1.6719zm-70.496-188.59h-0.003907-0.023437-0.046875c-11.594 0.10547-28.391-0.17969-37.77 7.2773-10.312 8.1992-9.9141 23.539-10.062 32.348v0.12891l-0.14844 259.71v0.10938 0.0625c0.11328 8.7656-0.32422 23.98 9.9375 32.219 9.332 7.4922 26.105 7.4062 37.738 7.6445h0.16406l433.53 0.09375c0.054687 0 0.10938-0.003906 0.16406-0.003906 11.633-0.23438 28.41-0.13672 37.742-7.6289 10.266-8.2344 9.8359-23.441 9.9492-32.211l0.003907-0.058594v-0.003906-0.10938l-0.039063-259.71v-0.13281c-0.14453-8.8047 0.26172-24.148-10.047-32.348-9.3789-7.4609-26.176-7.1836-37.766-7.2969h-0.078125l-158.99-0.039062-0.003906 0.003906c-0.046876-0.007813-0.097657-0.007813-0.14844-0.007813h-18.086c-0.5 0-0.97656 0.19922-1.332 0.55078-0.35156 0.35547-0.55078 0.83594-0.55078 1.3359v12.605c0 0.5 0.19922 0.98047 0.55078 1.332 0.35547 0.35547 0.83594 0.55469 1.3359 0.55469h6.5195l170.67 0.042968h-0.003907c14.516 0.13672 23.84 0.66797 27.691 3.7344v-0.003906c2.9258 2.332 3.6719 7.8008 3.8672 19.805l0.035156 259.52v0.003906c-0.15625 11.887-0.88672 17.309-3.8203 19.66-3.8828 3.1133-13.25 3.7383-27.738 4.0273l-433.36-0.089844c-14.492-0.30078-23.859-0.92578-27.738-4.0391-2.9336-2.3555-3.6602-7.7773-3.8125-19.664v-0.003906l0.14453-259.52c0.20312-12.004 0.94922-17.473 3.875-19.801 3.8555-3.0625 13.176-3.5898 27.695-3.7227l158.68 0.027344c0.09375 0.015625 0.19141 0.023438 0.28906 0.023438h18.086c1.0391 0 1.8867-0.84375 1.8867-1.8867v-12.605c0-1.043-0.84766-1.8867-1.8867-1.8867h-3.4297v-0.015625z"/>
 </g>
</svg>
