<?xml version="1.0" encoding="UTF-8"?>
<svg width="700pt" height="700pt" version="1.1" viewBox="0 0 700 600" xmlns="http://www.w3.org/2000/svg" xmlns:xlink="http://www.w3.org/1999/xlink">
 <g>
  <path d="m428.4 67.199h-156.8c-10.398 0-20.367 4.1289-27.719 11.48-7.3516 7.3516-11.484 17.324-11.484 27.719v347.2c0 10.395 4.1328 20.367 11.484 27.719 7.3516 7.3516 17.32 11.48 27.719 11.48h156.8c10.398 0 20.367-4.1289 27.719-11.48 7.3516-7.3516 11.484-17.324 11.484-27.719v-347.2c0-10.395-4.1328-20.367-11.484-27.719-7.3516-7.3516-17.32-11.48-27.719-11.48zm16.801 386.4v0.003906c0 4.4531-1.7695 8.7266-4.918 11.879-3.1523 3.1484-7.4258 4.918-11.883 4.918h-156.8c-4.457 0-8.7305-1.7695-11.883-4.918-3.1484-3.1523-4.918-7.4258-4.918-11.879v-347.2c0-4.4531 1.7695-8.7266 4.918-11.879 3.1523-3.1484 7.4258-4.918 11.883-4.918h22.398c1.4844 0 2.9102 0.58984 3.9609 1.6367 1.0508 1.0508 1.6406 2.4766 1.6406 3.9609 0 4.457 1.7695 8.7305 4.918 11.879 3.1523 3.1523 7.4258 4.9219 11.879 4.9219h67.203c4.4531 0 8.7266-1.7695 11.879-4.9219 3.1484-3.1484 4.918-7.4219 4.918-11.879 0-3.0938 2.5078-5.5977 5.6016-5.5977h22.398c4.457 0 8.7305 1.7695 11.883 4.918 3.1484 3.1523 4.918 7.4258 4.918 11.879z"/>
 </g>
</svg>
