<?xml version="1.0" encoding="UTF-8"?>
<svg width="700pt" height="700pt" version="1.1" viewBox="0 0 700 600" xmlns="http://www.w3.org/2000/svg" xmlns:xlink="http://www.w3.org/1999/xlink">
 <g>
  <path d="m555.52 123.2c-0.50391-0.69922-1.0859-1.3359-1.7344-1.9023-22.336-28.383-50.348-51.789-82.246-68.723-31.898-16.934-66.98-27.02-103-29.613-12.211-2.6875-24.859-2.6875-37.07 0-36.012 2.582-71.09 12.648-102.99 29.562-31.898 16.914-59.918 40.301-82.262 68.66-0.64844 0.56641-1.2305 1.2031-1.7344 1.9062 0 0.28125-0.28125 0.61719-0.44922 0.89453-34.754 45.148-53.652 100.5-53.762 157.48-0.11328 56.977 18.566 112.4 53.145 157.69 0.12891 0.30859 0.27734 0.60938 0.44922 0.89453 0.50391 0.69922 1.0859 1.3398 1.7383 1.9062 32.438 41.566 76.777 72.254 127.11 87.969 50.332 15.719 104.25 15.719 154.59 0 50.328-15.715 94.668-46.402 127.11-87.969 0.63281-0.57031 1.1953-1.207 1.6797-1.9062 0.17188-0.28516 0.32422-0.58594 0.44922-0.89453 34.578-45.285 53.262-100.71 53.148-157.69-0.10938-56.98-19.008-112.33-53.766-157.48-0.10938-0.28125-0.22266-0.78516-0.39062-0.78516zm-282.13-65.855c-21.613 22.625-39.535 54.656-52.191 93.297-17.57-6.1367-34.461-14.074-50.398-23.688 27.461-31.844 62.852-55.859 102.59-69.609zm-116.82 87.305c18.465 11.312 38.129 20.535 58.633 27.496-8.0977 32.266-12.457 65.355-12.992 98.617h-89.262c2.1055-45.359 17.25-89.148 43.621-126.11zm-0.61719 273.73h0.003907c-26.031-36.758-40.957-80.219-43.008-125.21h89.602-0.003907c0.66406 32.832 5.0391 65.48 13.051 97.328-20.871 7.0156-40.879 16.371-59.641 27.887zm13.832 17.809h0.003907c16.402-9.9219 33.824-18.051 51.969-24.246 13.215 40.262 32.367 73.414 55.438 95.984-41.719-13.578-78.883-38.402-107.41-71.738zm169.01 80.809c-39.594-6.9453-74.48-50.398-95.199-112 31.07-8.3438 63.035-12.914 95.199-13.609zm0-147.89c-34.27 0.74219-68.324 5.6328-101.42 14.559-7.625-29.59-11.891-59.949-12.711-90.496h114.13zm0-98.336h-114.18c0.66797-30.895 4.8398-61.609 12.43-91.562 33.211 8.8945 67.379 13.727 101.75 14.395zm0-99.566v-0.003906c-32.168-0.75781-64.129-5.3633-95.199-13.719 19.656-60.258 53.309-103.43 91.672-112.34l3.5273-0.33594zm190.68-44.238v-0.003906c-16.027 9.6289-33.012 17.57-50.68 23.688-12.656-38.641-30.578-70.672-52.191-93.297 39.836 13.707 75.332 37.723 102.87 69.609zm-168.28-82.156h3.5273c38.363 9.2383 72.016 52.414 91.672 112.67-31.07 8.3555-63.031 12.961-95.199 13.719zm0 148.68c34.371-0.62891 68.539-5.4258 101.75-14.281 7.6094 30.043 11.781 60.855 12.43 91.84h-114.18zm0 99.566h114.13c-0.82031 30.547-5.0859 60.906-12.711 90.496-33.102-8.8867-67.152-13.738-101.42-14.445zm0 224v-125.55c32.164 0.69531 64.129 5.2617 95.199 13.609-20.719 61.488-55.605 104.94-95.199 111.89zm61.602-9.125c23.184-22.398 42.336-56 55.551-95.984 18.141 6.1953 35.566 14.324 51.969 24.246-28.555 33.352-65.762 58.176-107.52 71.738zm121.35-89.602c-18.723-11.551-38.691-20.941-59.527-28 8.0625-31.84 12.496-64.492 13.215-97.328h89.602c-2.1367 45.094-17.203 88.621-43.402 125.38zm-46.367-147.56c-0.53516-33.262-4.8945-66.352-12.992-98.617 20.504-6.9609 40.168-16.184 58.633-27.496 26.371 36.965 41.516 80.754 43.621 126.11z"/>
 </g>
</svg>
